<?xml version="1.0" encoding="UTF-8"?>
<svg id="Layer_1" xmlns="http://www.w3.org/2000/svg" version="1.1" viewBox="0 0 1000 1000">
  <!-- Generator: Adobe Illustrator 29.4.0, SVG Export Plug-In . SVG Version: 2.1.0 Build 152)  -->
  <g>
    <path d="M10.23,177.57h67.79c5.64,0,10.23,4.58,10.23,10.23v410.11c0,5.64-4.58,10.23-10.23,10.23H10.23c-5.64,0-10.23-4.58-10.23-10.23V187.8c0-5.65,4.58-10.23,10.23-10.23Z" fill="#fff"/>
    <path d="M172.28,451.36c11.5-41.08,41.1-86.95,75.95-112.05,5.06-3.64,8.19-9.39,8.19-15.63v-135.88c0-5.65-4.58-10.23-10.23-10.23h-67.78c-5.65,0-10.23,4.58-10.23,10.23v263c0,2.45,3.44,2.92,4.1.56Z" fill="#fff"/>
    <path d="M539.47,177.57h-67.79c-5.65,0-10.23,4.58-10.23,10.23v151.55c0,5.75-4.66,10.42-10.42,10.42h-84.85c-109.25,0-198,88.56-198,197.81v50.34c0,5.65,4.58,10.22,10.22,10.22h67.8c5.65,0,10.22-4.58,10.22-10.22v-50.33c0-60.62,49.14-109.76,109.76-109.76h84.99c5.69.08,10.28,4.7,10.28,10.4v149.69c0,5.65,4.58,10.23,10.23,10.23h67.79c5.65,0,10.23-4.58,10.23-10.23V187.79c0-5.65-4.58-10.23-10.23-10.23Z" fill="#fff"/>
    <path d="M989.77,177.57h-67.8c-5.65,0-10.22,4.58-10.22,10.22v50.33c0,60.62-49.14,109.76-109.76,109.76h-84.99c-5.69-.08-10.28-4.7-10.28-10.4v-149.69c0-5.65-4.58-10.23-10.23-10.23h-67.79c-5.65,0-10.23,4.58-10.23,10.23v410.11c0,5.65,4.58,10.23,10.23,10.23h67.79c5.65,0,10.23-4.58,10.23-10.23v-151.55c0-5.75,4.66-10.42,10.42-10.42h84.85c109.25,0,198-88.56,198-197.81v-50.34c0-5.65-4.58-10.22-10.22-10.22Z" fill="#fff"/>
    <path d="M995.89,334.34c-11.5,41.08-41.1,86.95-75.95,112.05-5.06,3.65-8.19,9.39-8.19,15.63v135.88c0,5.65,4.58,10.23,10.23,10.23h67.78c5.65,0,10.23-4.58,10.23-10.23v-263c0-2.45-3.44-2.92-4.1-.56Z" fill="#fff"/>
  </g>
  <g>
    <path d="M769.43,710.91c-32.7,0-46.47,17.02-48.7,32.82-.1.68.35,1.25,1.04,1.25h22.38c1.04,0,1.88-.36,2.29-1.61,2.13-6.48,7.24-12.84,21.03-12.84,14.51,0,24.17,7.04,24.17,19.71v4h-18.71c-39.72,0-55.15,11.86-55.15,33.13s16.36,35.02,39.29,35.02c17.14,0,30.22-7.35,34.52-15.56v12.42c0,.69.56,1.25,1.25,1.25h21.6c.69,0,1.26-.56,1.26-1.25v-66.47c0-25.93-14.72-41.85-46.27-41.85ZM791.58,779.43c0,14.32-11.55,25.32-27.83,25.32-13.01,0-20.88-7.03-20.88-17.16,0-11.58,10.28-15.99,38.01-15.99h10.71v7.84Z" fill="#fff"/>
    <path d="M306.29,710.91c-32.7,0-46.47,17.02-48.7,32.82-.1.68.35,1.25,1.04,1.25h22.38c1.04,0,1.88-.36,2.29-1.61,2.13-6.48,7.24-12.84,21.03-12.84,14.51,0,24.17,7.04,24.17,19.71v4h-18.71c-39.72,0-55.15,11.86-55.15,33.13s16.36,35.02,39.29,35.02c17.14,0,30.22-7.35,34.52-15.56v12.42c0,.69.56,1.25,1.25,1.25h21.6c.69,0,1.26-.56,1.26-1.25v-66.47c0-25.93-14.72-41.85-46.27-41.85ZM328.44,779.43c0,14.32-11.55,25.32-27.83,25.32-13.01,0-20.88-7.03-20.88-17.16,0-11.58,10.28-15.99,38.01-15.99h10.71v7.84Z" fill="#fff"/>
    <path d="M889.14,711.97c-1.35-.23-3.28-.39-5-.39-10.67,0-22.27,5.94-25.61,17.08v-14.51c0-.69-.57-1.25-1.26-1.25h-21.33c-.69,0-1.25.56-1.25,1.25v105.09c0,.69.56,1.25,1.25,1.25h22.08c.69,0,1.26-.56,1.26-1.25v-54.45c0-19.62,8.43-30.69,23.59-30.69,2.55,0,4.65.37,6.1.65.68.13,1.25-.25,1.25-.94v-20.6c0-.69-.41-1.13-1.08-1.24Z" fill="#fff"/>
    <path d="M659.25,731.97c14.1,0,21.54,7.2,24.05,18.49.27,1.2.96,1.71,2.1,1.71h23.4c.72,0,1.18-.34,1.18-.94,0-.22-.09-.71-.18-1.28-4.04-23.23-21.7-38.95-50.92-38.95-36.48,0-55.77,24.47-55.77,55.7s19.29,55.7,55.77,55.7c29.23,0,46.88-15.72,50.92-38.95.1-.57.18-1.05.18-1.28,0-.6-.46-.94-1.18-.94h-23.4c-1.13,0-1.83.51-2.1,1.71-2.51,11.29-9.95,18.49-24.05,18.49-20.5,0-31.01-15.2-31.01-34.72s10.51-34.72,31.01-34.72Z" fill="#fff"/>
    <path d="M550.97,711.09c-14.38,0-26.71,5.66-33.94,17.33v-50.14c0-.69-.57-1.25-1.26-1.25h-22.04c-.69,0-1.26.56-1.26,1.25v140.96c0,.69.56,1.25,1.26,1.25h22.04c.69,0,1.26-.56,1.26-1.25v-58.81c0-16.32,9.69-28.53,25.87-28.53,13.63,0,22.24,8.65,22.24,26.74v60.59c0,.69.56,1.25,1.26,1.25h22.19c.69,0,1.26-.56,1.26-1.25v-63.51c0-29.69-15.51-44.64-38.88-44.64Z" fill="#fff"/>
    <path d="M477.54,712.89h-25.92v-25.18c0-.69-.57-1.25-1.26-1.25h-22.04c-.69,0-1.25.56-1.25,1.25v25.18h-17.43c-.69,0-1.25.56-1.25,1.25v17.89c0,.69.56,1.26,1.25,1.26h17.41v43.01c0,28.84,16.87,45.5,45.71,45.5h4.79c.69,0,1.25-.57,1.25-1.26v-17.88c0-.69-.56-1.25-1.25-1.25h-1.14c-18.01,0-24.82-9.07-24.82-24.64v-43.48h25.96c.69,0,1.25-.57,1.25-1.26v-17.89c0-.69-.56-1.25-1.25-1.25Z" fill="#fff"/>
    <path d="M394.9,677.02h-22.04c-.69,0-1.25.56-1.25,1.25v140.96c0,.69.56,1.25,1.25,1.25h22.04c.69,0,1.26-.56,1.26-1.25v-140.96c0-.69-.57-1.25-1.26-1.25Z" fill="#fff"/>
    <path d="M946.55,711c-34.55,0-55.05,24.48-55.05,55.7s22.2,55.74,55.94,55.74c26.49,0,44.81-14.04,49.89-32.6.15-.56.22-.78.22-1,0-.6-.46-1-1.18-1h-23.59c-1.13,0-1.55.6-2.08,1.71-3.07,6.42-10.01,11.88-22.88,11.88-18.84,0-30-11.9-31.52-27.7h82.42c.69,0,1.26-.56,1.26-1.25v-6.07c0-31.85-19.56-55.4-53.45-55.4ZM917.14,754.83c1.19-12.62,11.18-23.82,29.14-23.82s27.78,11.39,28.97,23.82h-58.1Z" fill="#fff"/>
    <path d="M192.38,711c-34.55,0-55.05,24.48-55.05,55.7s22.2,55.74,55.94,55.74c26.49,0,44.81-14.04,49.89-32.6.15-.56.22-.78.22-1,0-.6-.46-1-1.18-1h-23.59c-1.13,0-1.55.6-2.08,1.71-3.07,6.42-10.01,11.88-22.88,11.88-18.84,0-30-11.9-31.52-27.7h82.42c.69,0,1.26-.56,1.26-1.25v-6.07c0-31.85-19.56-55.4-53.45-55.4ZM162.96,754.83c1.19-12.62,11.18-23.82,29.14-23.82s27.78,11.39,28.97,23.82h-58.1Z" fill="#fff"/>
    <path d="M119.11,678.91h-22.8c-.69,0-1.27.56-1.27,1.25v53.68H25.31v-53.68c0-.69-.56-1.25-1.25-1.25H1.25c-.69,0-1.25.56-1.25,1.25v139.07c0,.69.56,1.25,1.25,1.25h22.8c.69,0,1.25-.56,1.25-1.25v-61.96h69.72v61.96c0,.69.56,1.25,1.25,1.25h22.8c.69,0,1.26-.56,1.26-1.25v-139.07c0-.69-.55-1.25-1.24-1.25Z" fill="#fff"/>
  </g>
</svg>